<mxfile host="app.diagrams.net" modified="2021-06-08T08:55:16.687Z" agent="5.0 (Windows NT 10.0; WOW64) AppleWebKit/537.36 (KHTML, like Gecko) Chrome/91.0.4472.77 Safari/537.36" etag="jqZoHsSIWAnWGn9sWuHp" version="14.7.6" type="github">
  <diagram id="hkaMPuZAKKTmRTdraMC9" name="Page-1">
    <mxGraphModel dx="1422" dy="706" grid="0" gridSize="10" guides="1" tooltips="1" connect="1" arrows="1" fold="1" page="0" pageScale="1" pageWidth="827" pageHeight="1169" math="0" shadow="0">
      <root>
        <mxCell id="0" />
        <mxCell id="1" parent="0" />
        <mxCell id="em0Z1fjk6xm2ddBQGNQx-15" style="edgeStyle=orthogonalEdgeStyle;rounded=0;orthogonalLoop=1;jettySize=auto;html=1;exitX=0.5;exitY=1;exitDx=0;exitDy=0;entryX=0.5;entryY=0;entryDx=0;entryDy=0;" edge="1" parent="1" source="em0Z1fjk6xm2ddBQGNQx-1" target="em0Z1fjk6xm2ddBQGNQx-3">
          <mxGeometry relative="1" as="geometry" />
        </mxCell>
        <mxCell id="em0Z1fjk6xm2ddBQGNQx-19" style="edgeStyle=orthogonalEdgeStyle;rounded=0;orthogonalLoop=1;jettySize=auto;html=1;exitX=0.75;exitY=1;exitDx=0;exitDy=0;entryX=-0.008;entryY=0.617;entryDx=0;entryDy=0;entryPerimeter=0;" edge="1" parent="1" source="em0Z1fjk6xm2ddBQGNQx-1" target="em0Z1fjk6xm2ddBQGNQx-5">
          <mxGeometry relative="1" as="geometry" />
        </mxCell>
        <mxCell id="em0Z1fjk6xm2ddBQGNQx-1" value="柜台前置A" style="rounded=0;whiteSpace=wrap;html=1;fillColor=#dae8fc;strokeColor=#6c8ebf;" vertex="1" parent="1">
          <mxGeometry x="155" y="175" width="120" height="60" as="geometry" />
        </mxCell>
        <mxCell id="em0Z1fjk6xm2ddBQGNQx-17" style="edgeStyle=orthogonalEdgeStyle;rounded=0;orthogonalLoop=1;jettySize=auto;html=1;exitX=0.5;exitY=1;exitDx=0;exitDy=0;entryX=0.5;entryY=0;entryDx=0;entryDy=0;" edge="1" parent="1" source="em0Z1fjk6xm2ddBQGNQx-2" target="em0Z1fjk6xm2ddBQGNQx-4">
          <mxGeometry relative="1" as="geometry" />
        </mxCell>
        <mxCell id="em0Z1fjk6xm2ddBQGNQx-20" style="edgeStyle=orthogonalEdgeStyle;rounded=0;orthogonalLoop=1;jettySize=auto;html=1;exitX=0.25;exitY=1;exitDx=0;exitDy=0;entryX=0.992;entryY=0.65;entryDx=0;entryDy=0;entryPerimeter=0;" edge="1" parent="1" source="em0Z1fjk6xm2ddBQGNQx-2" target="em0Z1fjk6xm2ddBQGNQx-5">
          <mxGeometry relative="1" as="geometry" />
        </mxCell>
        <mxCell id="em0Z1fjk6xm2ddBQGNQx-2" value="柜台前置B" style="rounded=0;whiteSpace=wrap;html=1;fillColor=#dae8fc;strokeColor=#6c8ebf;" vertex="1" parent="1">
          <mxGeometry x="409" y="173" width="120" height="60" as="geometry" />
        </mxCell>
        <mxCell id="em0Z1fjk6xm2ddBQGNQx-11" style="edgeStyle=orthogonalEdgeStyle;rounded=0;orthogonalLoop=1;jettySize=auto;html=1;exitX=1;exitY=0.5;exitDx=0;exitDy=0;entryX=0;entryY=0.5;entryDx=0;entryDy=0;" edge="1" parent="1" source="em0Z1fjk6xm2ddBQGNQx-3" target="em0Z1fjk6xm2ddBQGNQx-4">
          <mxGeometry relative="1" as="geometry" />
        </mxCell>
        <mxCell id="em0Z1fjk6xm2ddBQGNQx-16" style="edgeStyle=orthogonalEdgeStyle;rounded=0;orthogonalLoop=1;jettySize=auto;html=1;exitX=0.5;exitY=1;exitDx=0;exitDy=0;entryX=0.5;entryY=0;entryDx=0;entryDy=0;" edge="1" parent="1" source="em0Z1fjk6xm2ddBQGNQx-3" target="em0Z1fjk6xm2ddBQGNQx-7">
          <mxGeometry relative="1" as="geometry" />
        </mxCell>
        <mxCell id="em0Z1fjk6xm2ddBQGNQx-3" value="缓存集群A" style="rounded=0;whiteSpace=wrap;html=1;fillColor=#dae8fc;strokeColor=#6c8ebf;" vertex="1" parent="1">
          <mxGeometry x="155" y="332" width="120" height="60" as="geometry" />
        </mxCell>
        <mxCell id="em0Z1fjk6xm2ddBQGNQx-12" style="edgeStyle=orthogonalEdgeStyle;rounded=0;orthogonalLoop=1;jettySize=auto;html=1;exitX=0;exitY=0.5;exitDx=0;exitDy=0;entryX=1;entryY=0.5;entryDx=0;entryDy=0;" edge="1" parent="1" source="em0Z1fjk6xm2ddBQGNQx-4" target="em0Z1fjk6xm2ddBQGNQx-3">
          <mxGeometry relative="1" as="geometry" />
        </mxCell>
        <mxCell id="em0Z1fjk6xm2ddBQGNQx-18" style="edgeStyle=orthogonalEdgeStyle;rounded=0;orthogonalLoop=1;jettySize=auto;html=1;exitX=0.5;exitY=1;exitDx=0;exitDy=0;entryX=0.5;entryY=0;entryDx=0;entryDy=0;" edge="1" parent="1" source="em0Z1fjk6xm2ddBQGNQx-4" target="em0Z1fjk6xm2ddBQGNQx-8">
          <mxGeometry relative="1" as="geometry" />
        </mxCell>
        <mxCell id="em0Z1fjk6xm2ddBQGNQx-4" value="缓存集群B" style="rounded=0;whiteSpace=wrap;html=1;fillColor=#dae8fc;strokeColor=#6c8ebf;" vertex="1" parent="1">
          <mxGeometry x="409" y="332" width="120" height="60" as="geometry" />
        </mxCell>
        <mxCell id="em0Z1fjk6xm2ddBQGNQx-5" value="柜台" style="rounded=0;whiteSpace=wrap;html=1;fillColor=#dae8fc;strokeColor=#6c8ebf;" vertex="1" parent="1">
          <mxGeometry x="284" y="262" width="120" height="60" as="geometry" />
        </mxCell>
        <mxCell id="em0Z1fjk6xm2ddBQGNQx-14" style="edgeStyle=orthogonalEdgeStyle;rounded=0;orthogonalLoop=1;jettySize=auto;html=1;exitX=1;exitY=0.5;exitDx=0;exitDy=0;entryX=0;entryY=0.5;entryDx=0;entryDy=0;" edge="1" parent="1" source="em0Z1fjk6xm2ddBQGNQx-7" target="em0Z1fjk6xm2ddBQGNQx-8">
          <mxGeometry relative="1" as="geometry" />
        </mxCell>
        <mxCell id="em0Z1fjk6xm2ddBQGNQx-7" value="数据库A" style="rounded=0;whiteSpace=wrap;html=1;fillColor=#dae8fc;strokeColor=#6c8ebf;" vertex="1" parent="1">
          <mxGeometry x="155" y="423" width="120" height="60" as="geometry" />
        </mxCell>
        <mxCell id="em0Z1fjk6xm2ddBQGNQx-13" style="edgeStyle=orthogonalEdgeStyle;rounded=0;orthogonalLoop=1;jettySize=auto;html=1;exitX=0;exitY=0.5;exitDx=0;exitDy=0;entryX=1;entryY=0.5;entryDx=0;entryDy=0;" edge="1" parent="1" source="em0Z1fjk6xm2ddBQGNQx-8" target="em0Z1fjk6xm2ddBQGNQx-7">
          <mxGeometry relative="1" as="geometry" />
        </mxCell>
        <mxCell id="em0Z1fjk6xm2ddBQGNQx-8" value="数据库B" style="rounded=0;whiteSpace=wrap;html=1;fillColor=#dae8fc;strokeColor=#6c8ebf;" vertex="1" parent="1">
          <mxGeometry x="411" y="423" width="120" height="60" as="geometry" />
        </mxCell>
        <mxCell id="em0Z1fjk6xm2ddBQGNQx-9" value="Text" style="text;html=1;align=center;verticalAlign=middle;resizable=0;points=[];autosize=1;strokeColor=none;" vertex="1" parent="1">
          <mxGeometry x="649" y="670" width="40" height="20" as="geometry" />
        </mxCell>
        <mxCell id="em0Z1fjk6xm2ddBQGNQx-23" style="edgeStyle=orthogonalEdgeStyle;rounded=0;orthogonalLoop=1;jettySize=auto;html=1;exitX=0;exitY=0.5;exitDx=0;exitDy=0;entryX=0.5;entryY=0;entryDx=0;entryDy=0;" edge="1" parent="1" source="em0Z1fjk6xm2ddBQGNQx-22" target="em0Z1fjk6xm2ddBQGNQx-1">
          <mxGeometry relative="1" as="geometry" />
        </mxCell>
        <mxCell id="em0Z1fjk6xm2ddBQGNQx-24" style="edgeStyle=orthogonalEdgeStyle;rounded=0;orthogonalLoop=1;jettySize=auto;html=1;exitX=1;exitY=0.5;exitDx=0;exitDy=0;entryX=0.5;entryY=0;entryDx=0;entryDy=0;" edge="1" parent="1" source="em0Z1fjk6xm2ddBQGNQx-22" target="em0Z1fjk6xm2ddBQGNQx-2">
          <mxGeometry relative="1" as="geometry" />
        </mxCell>
        <mxCell id="em0Z1fjk6xm2ddBQGNQx-22" value="前端/客户端" style="rounded=0;whiteSpace=wrap;html=1;fillColor=#d5e8d4;strokeColor=#82b366;" vertex="1" parent="1">
          <mxGeometry x="279" y="62" width="120" height="60" as="geometry" />
        </mxCell>
      </root>
    </mxGraphModel>
  </diagram>
</mxfile>
